<?xml version="1.0" encoding="UTF-8" standalone="no"?>
<svg width="259px" height="71px" viewBox="0 0 259 71" version="1.1" xmlns="http://www.w3.org/2000/svg" xmlns:xlink="http://www.w3.org/1999/xlink">
    <!-- Generator: Sketch 3.7.2 (28276) - http://www.bohemiancoding.com/sketch -->
    <title>Nau_Logo_333333_Large</title>
    <desc>Created with Sketch.</desc>
    <defs></defs>
    <g id="Page-1" stroke="none" stroke-width="1" fill="none" fill-rule="evenodd">
        <g id="Nau_Logo_333333_Large" fill="#333333">
            <g id="Group">
                <g id="Shape">
                    <path d="M208.084,70.625 C182.676,70.625 169.243,57.193 169.243,31.781 L169.243,1.088 L182.243,1.088 L182.243,31.781 C182.243,49.896 189.971,57.625 208.084,57.625 C226.196,57.625 233.923,49.896 233.923,31.781 L233.923,1.088 L246.922,1.088 L246.922,31.781 C246.922,57.193 233.492,70.625 208.084,70.625 L208.084,70.625 Z"></path>
                    <path d="M77.714,69.875 L64.716,69.875 L64.716,39.178 C64.716,21.067 56.987,13.338 38.876,13.338 C20.763,13.338 13.036,21.067 13.036,39.178 L13.036,69.875 L0.036,69.875 L0.036,39.178 C0.036,13.77 13.467,0.338 38.876,0.338 C64.284,0.338 77.714,13.77 77.714,39.178 L77.714,69.875 L77.714,69.875 Z"></path>
                    <path d="M123.403,0.338 C123.266,0.338 123.13,0.338 122.993,0.34 C114.648,0.387 107.875,2.051 101.711,4.426 L101.711,17.697 C106.196,16.041 114.352,13.34 122.98,13.34 C123.121,13.34 123.261,13.338 123.404,13.338 C141.716,13.338 150.246,21.549 150.246,39.176 L150.246,69.875 L163.246,69.875 L163.246,39.176 C163.245,14.131 149.096,0.338 123.403,0.338 L123.403,0.338 Z"></path>
                    <path d="M123.552,70.625 C123.69,70.625 123.826,70.625 123.963,70.623 C132.309,70.576 139.083,68.912 145.245,66.537 L145.245,53.266 C140.761,54.922 132.605,57.623 123.976,57.623 C123.834,57.623 123.694,57.625 123.551,57.625 C105.239,57.625 96.71,49.414 96.71,31.785 L96.71,1.088 L83.711,1.088 L83.711,31.785 C83.712,56.832 97.86,70.625 123.552,70.625 L123.552,70.625 Z"></path>
                </g>
                <path d="M251.702,2.432 C251.888,2.01 252.14,1.645 252.46,1.334 C252.781,1.023 253.152,0.779 253.577,0.604 C254.001,0.426 254.455,0.338 254.931,0.338 C255.409,0.338 255.858,0.426 256.282,0.604 C256.703,0.78 257.074,1.024 257.39,1.334 C257.705,1.645 257.957,2.01 258.143,2.432 C258.329,2.856 258.422,3.311 258.422,3.801 C258.422,4.303 258.328,4.768 258.143,5.194 C257.957,5.618 257.705,5.987 257.39,6.301 C257.074,6.613 256.702,6.858 256.282,7.031 C255.858,7.203 255.409,7.291 254.931,7.291 C254.454,7.291 254,7.203 253.577,7.031 C253.152,6.857 252.781,6.613 252.46,6.301 C252.141,5.987 251.888,5.617 251.702,5.194 C251.516,4.768 251.423,4.303 251.423,3.801 C251.423,3.311 251.517,2.855 251.702,2.432 L251.702,2.432 Z M252.274,4.988 C252.42,5.349 252.621,5.666 252.878,5.931 C253.138,6.199 253.441,6.408 253.791,6.56 C254.142,6.712 254.523,6.789 254.932,6.789 C255.335,6.789 255.71,6.713 256.059,6.56 C256.407,6.408 256.708,6.199 256.967,5.931 C257.225,5.665 257.425,5.349 257.571,4.988 C257.717,4.625 257.791,4.228 257.791,3.8 C257.791,3.384 257.718,2.997 257.571,2.636 C257.425,2.277 257.224,1.964 256.967,1.7 C256.708,1.436 256.406,1.229 256.059,1.077 C255.71,0.925 255.335,0.848 254.932,0.848 C254.524,0.848 254.142,0.924 253.791,1.077 C253.441,1.229 253.138,1.436 252.878,1.7 C252.621,1.964 252.42,2.276 252.274,2.636 C252.128,2.997 252.054,3.384 252.054,3.8 C252.055,4.229 252.128,4.625 252.274,4.988 L252.274,4.988 Z M255.146,1.781 C255.63,1.781 255.99,1.877 256.222,2.068 C256.454,2.261 256.572,2.552 256.572,2.945 C256.572,3.31 256.468,3.58 256.263,3.75 C256.059,3.92 255.804,4.021 255.499,4.053 L256.663,5.85 L255.983,5.85 L254.876,4.1 L254.206,4.1 L254.206,5.85 L253.574,5.85 L253.574,1.782 L255.146,1.782 L255.146,1.781 Z M254.868,3.586 C255.011,3.586 255.143,3.582 255.271,3.572 C255.399,3.564 255.512,3.537 255.612,3.494 C255.71,3.451 255.79,3.383 255.848,3.293 C255.906,3.203 255.937,3.078 255.937,2.916 C255.937,2.779 255.909,2.672 255.858,2.592 C255.805,2.51 255.737,2.447 255.653,2.404 C255.571,2.361 255.472,2.332 255.365,2.316 C255.257,2.3 255.149,2.293 255.044,2.293 L254.206,2.293 L254.206,3.586 L254.868,3.586 L254.868,3.586 Z" id="Shape"></path>
            </g>
        </g>
    </g>
</svg>